<?xml version="1.0" encoding="UTF-8"?>
<svg version="1.1" xmlns="http://www.w3.org/2000/svg" width="500" height="500">
<path d="M0 0 C21.71581905 18.97206379 35.26399042 44.32945304 37.53515625 73.21484375 C38.93352387 103.1756139 30.03008056 130.40885636 10.12841797 152.79736328 C-9.27060589 174.03702647 -35.64745947 185.77017273 -64.22265625 187.43359375 C-93.2777471 188.12675695 -120.98367724 178.0272847 -142.203125 157.99584961 C-163.08162877 137.58020846 -174.40491452 110.64889907 -174.77734375 81.46484375 C-174.64320369 55.74006606 -165.92999164 30.37713498 -148.46484375 11.21484375 C-148.03333008 10.74095215 -147.60181641 10.26706055 -147.15722656 9.77880859 C-108.69460248 -31.9091086 -43.77517798 -36.14400591 0 0 Z " fill="#E9BBBA" transform="translate(309.46484375,168.78515625)"/>
<path d="M0 0 C21.71581905 18.97206379 35.26399042 44.32945304 37.53515625 73.21484375 C38.93352387 103.1756139 30.03008056 130.40885636 10.12841797 152.79736328 C-9.27060589 174.03702647 -35.64745947 185.77017273 -64.22265625 187.43359375 C-93.2777471 188.12675695 -120.98367724 178.0272847 -142.203125 157.99584961 C-163.08162877 137.58020846 -174.40491452 110.64889907 -174.77734375 81.46484375 C-174.64320369 55.74006606 -165.92999164 30.37713498 -148.46484375 11.21484375 C-148.03333008 10.74095215 -147.60181641 10.26706055 -147.15722656 9.77880859 C-108.69460248 -31.9091086 -43.77517798 -36.14400591 0 0 Z M-109.46484375 -12.78515625 C-110.53992188 -12.30433594 -111.615 -11.82351562 -112.72265625 -11.328125 C-129.94946357 -3.24477695 -145.57925188 9.82495509 -155.46484375 26.21484375 C-156.12097656 27.30023438 -156.77710938 28.385625 -157.453125 29.50390625 C-161.45180369 36.40994383 -164.46440053 43.42837452 -166.90234375 51.02734375 C-167.14927979 51.79103271 -167.39621582 52.55472168 -167.65063477 53.34155273 C-175.23950147 78.45483481 -170.48193388 107.41055598 -158.75048828 130.41601562 C-146.07869982 154.04828993 -124.40711281 171.43820274 -98.89404297 179.35424805 C-71.60011694 187.54955997 -43.68264205 183.89737581 -18.46484375 171.21484375 C4.19106332 158.6396581 19.58024428 138.1009331 28.53515625 114.21484375 C28.87546875 113.34730469 29.21578125 112.47976563 29.56640625 111.5859375 C38.34925975 87.74049024 34.51854578 59.76799727 24.390625 37.0625 C21.91442873 31.78193686 18.94371952 26.94384144 15.53515625 22.21484375 C14.73851562 21.085625 14.73851562 21.085625 13.92578125 19.93359375 C-1.98524687 -1.58417761 -26.15980018 -15.83088474 -52.44873047 -20.38598633 C-57.82421197 -21.09740872 -63.17354201 -21.16788996 -68.58984375 -21.16015625 C-69.7718335 -21.15854492 -70.95382324 -21.15693359 -72.17163086 -21.15527344 C-85.40374331 -20.9711054 -97.44121403 -18.42240321 -109.46484375 -12.78515625 Z " fill="#1B1515" transform="translate(309.46484375,168.78515625)"/>
<path d="M0 0 C4.18531174 1.72871572 6.23950002 3.83039478 8 8 C8.72773624 14.34170152 7.53945456 18.68485949 4 24 C3.236875 24.70125 2.47375 25.4025 1.6875 26.125 C1.130625 26.74375 0.57375 27.3625 0 28 C0.20106334 31.2840345 0.9616962 33.8850886 2 37 C2.72840838 46.85142486 2.67023373 55.87549096 -3.54296875 64.0234375 C-7.45646243 68.26827962 -11.71385764 70.79573986 -17 73 C-17.62648438 73.2990625 -18.25296875 73.598125 -18.8984375 73.90625 C-26.09813789 77.07999548 -33.6424918 77.10184346 -41.0625 74.5625 C-48.7154415 71.13271282 -56.29369457 64.56086307 -60 57 C-63.74912756 46.48934544 -65.27583834 33.73027574 -61.05859375 23.13671875 C-55.39003645 11.69501823 -55.39003645 11.69501823 -52 10 C-52.47952424 12.71730403 -53.07381981 15.20761822 -54 17.8125 C-57.79220804 29.90016314 -57.69995243 44.60009513 -52 56 C-47.66968152 62.47975017 -42.70054435 66.34886665 -35 68 C-27.75674444 68.77515542 -21.2592496 67.88913788 -15 64 C-10.26275199 59.2243159 -7.87247953 54.70385665 -7.6875 47.9375 C-7.77550054 41.28465951 -9.10315532 35.18585703 -13.68359375 30.1484375 C-15.39957533 28.65018261 -17.13813081 27.31065792 -19 26 C-20.3344602 25.00150425 -21.66807001 24.00186839 -23 23 C-21.91460937 22.97421875 -20.82921875 22.9484375 -19.7109375 22.921875 C-18.26558651 22.86556262 -16.82027556 22.808216 -15.375 22.75 C-14.66214844 22.73582031 -13.94929688 22.72164063 -13.21484375 22.70703125 C-8.10162961 22.47248014 -5.07548983 21.33563168 -1 18 C0.59951565 14.8009687 0.49092835 11.47207293 0 8 C-1.77853377 5.70272722 -3.11447442 5.16213849 -5.94140625 4.64453125 C-7.95613221 4.38851635 -9.97822141 4.19255034 -12 4 C-12.99 3.67 -13.98 3.34 -15 3 C-9.9598741 -0.10161594 -5.77305909 -0.77898949 0 0 Z " fill="#080606" transform="translate(278,240)"/>
<path d="M0 0 C7.00262974 3.42912281 11.30506704 8.99651915 14.5625 16 C16.75419946 25.68000593 15.30074993 33.91883683 10.0625 42.31640625 C2.6154427 52.11182537 -11.23412421 54.93452857 -22.84643555 56.62719727 C-28.34692419 57.28610057 -33.84248363 57.53610708 -39.375 57.75 C-55.26562682 57.60762095 -55.26562682 57.60762095 -68.6875 64.3125 C-69.32106932 66.29224375 -69.32106932 66.29224375 -69.0625 68.3125 C-68.99675781 69.34890625 -68.99675781 69.34890625 -68.9296875 70.40625 C-68.67169536 72.43689781 -68.33580714 74.36757857 -67.6875 76.3125 C-71.15924206 73.07220741 -73.33081937 70.63092408 -74.0625 65.875 C-73.53251092 62.25340793 -72.30731254 60.86681723 -69.6875 58.3125 C-60.8971455 52.31437576 -49.77943997 52.12947838 -39.5 51.4375 C-17.22758225 49.69883039 -17.22758225 49.69883039 1.3125 38.4375 C4.92274373 32.79649417 6.14790477 26.91741897 5.3125 20.3125 C3.33830114 14.28599822 0.67385039 9.02591562 -5.09375 6.0859375 C-8.89982507 4.52992446 -12.68228783 3.24674118 -16.6875 2.3125 C-16.6875 1.6525 -16.6875 0.9925 -16.6875 0.3125 C-11.38291994 -3.22388671 -5.56025408 -2.28897126 0 0 Z " fill="#0C090A" transform="translate(297.6875,266.6875)"/>
<path d="M0 0 C5.50536214 2.48594841 9.81868673 6.9537797 12.515625 12.34765625 C12.92642245 17.25352576 13.14131874 21.81470659 11.265625 26.41015625 C9.45963745 28.40964247 8.02258729 29.39673952 5.515625 30.34765625 C5.845625 29.31640625 6.175625 28.28515625 6.515625 27.22265625 C7.90409717 22.22214417 8.34926363 18.86606947 5.765625 14.16015625 C2.53699669 10.12437086 -0.22140128 7.79816544 -5.46484375 7.07421875 C-11.72349156 6.78621018 -15.7654285 8.19327897 -20.484375 12.34765625 C-25.06996882 17.73572899 -25.09175657 22.83117814 -24.86328125 29.78125 C-23.76031191 40.16280678 -19.10363657 48.57836702 -11.16015625 55.3203125 C-8.67229121 57.1598485 -6.15398845 58.7849557 -3.484375 60.34765625 C-2.4325 60.96640625 -2.4325 60.96640625 -1.359375 61.59765625 C7.41981164 65.86183262 17.93349553 65.69703416 27.515625 66.34765625 C27.515625 66.67765625 27.515625 67.00765625 27.515625 67.34765625 C14.64229745 70.6602489 -0.54562273 69.62067415 -11.9609375 62.88671875 C-14.20203594 61.44861975 -16.34491601 59.93163704 -18.484375 58.34765625 C-19.37125 57.74953125 -20.258125 57.15140625 -21.171875 56.53515625 C-24.66000131 53.23557731 -27.03202701 49.4528196 -29.484375 45.34765625 C-29.90332031 44.71472656 -30.32226562 44.08179688 -30.75390625 43.4296875 C-35.4403597 35.13317451 -34.99179421 23.11336106 -32.63671875 14.10546875 C-30.00071622 8.22584277 -25.983322 4.58361711 -20.484375 1.34765625 C-19.58138672 0.78691406 -19.58138672 0.78691406 -18.66015625 0.21484375 C-13.10924221 -1.99754928 -5.70349096 -1.49761476 0 0 Z " fill="#080706" transform="translate(200.484375,253.65234375)"/>
<path d="M0 0 C5.21457083 2.70756562 8.52504473 6.19758499 11.25 11.375 C12.58649794 16.0527428 12.49763195 19.70615692 10.75 24.25 C8.98138257 27.02925596 7.9166491 28.50000903 5 30 C1.7367818 30.39957774 -0.14345279 30.5526111 -2.9375 28.75 C-4 27 -4 27 -3.75 24.875 C-3 23 -3 23 -2 22 C2.53488372 21.76744186 2.53488372 21.76744186 5 23 C6.59453633 19.81092735 6.38561702 16.47055318 6 13 C4.27032287 9.25452396 4.27032287 9.25452396 1 7 C-2.05920574 6.57928408 -4.9467746 6.51485883 -8 7 C-10.75569447 9.18159145 -12.43588747 10.87177494 -14 14 C-14.57369167 19.3282596 -12.87880068 23.02866227 -10.4375 27.625 C-10.07978516 28.32794189 -9.72207031 29.03088379 -9.35351562 29.75512695 C-7.12814621 34.06996911 -4.6505417 38.11683166 -2 42.1875 C1.69759572 48.37548554 2.09524994 53.93852012 1 61 C0.22995843 63.38366799 -0.57428808 64.92083678 -2 67 C-2.33 66.01 -2.66 65.02 -3 64 C-2.67 63.34 -2.34 62.68 -2 62 C0.03826262 50.37263826 -7.51493172 42.04528676 -13.8125 33.0625 C-14.56144531 32.02222656 -15.31039062 30.98195312 -16.08203125 29.91015625 C-20.15272792 23.73364094 -20.86871888 18.29294861 -20 11 C-17.81473658 6.54853749 -15.0605479 3.81114855 -11 1 C-7.27200105 -0.24266632 -3.87217006 -0.52902513 0 0 Z " fill="#0F0C0B" transform="translate(218,175)"/>
<path d="M0 0 C2.5 1 2.5 1 4 3 C4.39296656 6.09461163 4.61866635 8.04348869 4 11 C2 13.5 2 13.5 0 15 C-0.33 12.03 -0.66 9.06 -1 6 C-6.24696257 7.28699082 -9.19353153 8.10698408 -12.05859375 12.6953125 C-13.29473538 15.72155134 -13.26495997 18.23872699 -13.25 21.5 C-13.25515625 22.6240625 -13.2603125 23.748125 -13.265625 24.90625 C-13.01284295 27.85041743 -12.53364541 29.51695505 -11 32 C-7.66799815 32.41771804 -7.66799815 32.41771804 -4 32 C-1.7705435 29.7705435 -0.40073893 27.80147786 1 25 C0.21625 25.66 -0.5675 26.32 -1.375 27 C-4 29 -4 29 -6 29 C-5.41463247 25.33939179 -3.916761 23.45464836 -1.4375 20.75 C-0.79683594 20.04359375 -0.15617187 19.3371875 0.50390625 18.609375 C0.99761719 18.07828125 1.49132812 17.5471875 2 17 C3.65 17.33 5.3 17.66 7 18 C7.67231379 24.45421234 5.83078584 27.87743754 2 33 C1.4225 33.804375 0.845 34.60875 0.25 35.4375 C-3.25043012 37.86835425 -6.79152112 38.18821462 -11 38 C-16.02290729 36.03451454 -17.68289478 32.63421043 -20 28 C-20.73985428 20.47340546 -19.97940866 13.26560147 -15.5703125 6.953125 C-11.01296098 1.46616447 -7.39003385 -0.90702629 0 0 Z " fill="#0E0C0A" transform="translate(202,214)"/>
<path d="M0 0 C0.99 0.33 1.98 0.66 3 1 C7.83017941 12.63762525 3.07880941 29.31177307 -1.3671875 40.4140625 C-4.82639141 47.76271957 -9.1617861 54.42016756 -13.625 61.1875 C-22.2877056 74.37210861 -25.8440183 84.31660655 -27 100 C-29.39810807 96.4028379 -29.29852701 94.65073613 -29.3125 90.375 C-29.32925781 89.20710938 -29.34601563 88.03921875 -29.36328125 86.8359375 C-28.56664727 78.42416798 -24.92088032 71.51339574 -20.8125 64.25 C-20.0843811 62.94119873 -20.0843811 62.94119873 -19.34155273 61.60595703 C-16.54130995 56.60878518 -13.62189076 51.71711846 -10.5625 46.875 C-4.06696003 36.39446618 -2.14054287 27.09575728 -1 15 C-2.134375 14.87625 -3.26875 14.7525 -4.4375 14.625 C-6.2009375 14.315625 -6.2009375 14.315625 -8 14 C-8.33 13.34 -8.66 12.68 -9 12 C-6.36 12.33 -3.72 12.66 -1 13 C-1.33 11.68 -1.66 10.36 -2 9 C-1.34 9 -0.68 9 0 9 C-0.66868314 5.88667752 -0.66868314 5.88667752 -3.0625 4.8125 C-3.701875 4.544375 -4.34125 4.27625 -5 4 C-4.360625 3.896875 -3.72125 3.79375 -3.0625 3.6875 C-2.381875 3.460625 -1.70125 3.23375 -1 3 C-0.67 2.01 -0.34 1.02 0 0 Z " fill="#151011" transform="translate(264,201)"/>
<path d="M0 0 C0.59296875 0.22558594 1.1859375 0.45117188 1.796875 0.68359375 C2.484375 2.87109375 2.484375 2.87109375 2.796875 5.68359375 C1.82802128 7.36855673 0.82700777 9.03538131 -0.203125 10.68359375 C-0.45508629 13.39312926 -0.45508629 13.39312926 -0.203125 15.68359375 C1.446875 15.68359375 3.096875 15.68359375 4.796875 15.68359375 C4.136875 14.69359375 3.476875 13.70359375 2.796875 12.68359375 C3.171875 9.99609375 3.171875 9.99609375 3.796875 7.68359375 C7.00647034 6.88119491 9.04874855 6.38828068 12.171875 7.62109375 C14.24808754 10.25628658 14.3532503 12.44154906 14.1953125 15.74609375 C13.59414231 18.66943115 12.15053011 19.95296499 9.796875 21.68359375 C6.31297583 23.42554334 2.59787361 23.26029699 -1.203125 22.68359375 C-4.64023419 20.29866084 -5.93829739 18.90180078 -6.828125 14.80859375 C-5.98638683 10.59990288 -3.90470794 7.94479029 -1.203125 4.68359375 C-2.193125 5.34359375 -3.183125 6.00359375 -4.203125 6.68359375 C-6.390625 6.30859375 -6.390625 6.30859375 -8.203125 5.68359375 C-7.30284912 4.64827649 -6.38219465 3.6306521 -5.453125 2.62109375 C-4.68742188 1.76837891 -4.68742188 1.76837891 -3.90625 0.8984375 C-2.203125 -0.31640625 -2.203125 -0.31640625 0 0 Z " fill="#0A0808" transform="translate(236.203125,154.31640625)"/>
<path d="M0 0 C4.15636163 1.6802313 6.69435919 4.15726532 9 8 C9.64812848 11.95358372 9.8703981 14.35016623 7.99780273 17.8996582 C3.70701324 23.82488924 -1.43638443 27.47231152 -7.5625 31.375 C-8.96145508 32.29732422 -8.96145508 32.29732422 -10.38867188 33.23828125 C-14.51201909 35.92448179 -18.37024211 38.28359693 -23 40 C-18.63792522 35.50574114 -13.95973779 31.49174506 -9.171875 27.4609375 C-5.61382307 24.44432825 -2.25070065 21.34630949 1 18 C1.33 17.67 1.66 17.34 2 17 C2.5469623 11.73266351 2.5469623 11.73266351 0.6875 7.0625 C-3.13319237 4.65687888 -6.60324635 4.63360386 -11 5 C-13.53792349 6.12851355 -15.66088655 7.47241571 -18 9 C-17.80270678 5.44872205 -17.20818982 4.20271114 -14.625 1.6875 C-9.65730455 -0.62504788 -5.39418963 -0.6763357 0 0 Z " fill="#0D090B" transform="translate(290,198)"/>
<path d="M0 0 C1.96484375 0.6953125 1.96484375 0.6953125 4 2 C4.50390625 4.2421875 4.50390625 4.2421875 4.5625 6.875 C4.6659027 10.95028297 5.29267601 12.91207078 8 16 C13.52402119 15.5580783 16.48716479 14.10884203 21 11 C22.32 11 23.64 11 25 11 C24.70985788 14.48170548 24.27243676 15.74228955 21.6875 18.1875 C16.36680355 21.77587667 12.41316393 22.89071721 6 22 C2.28984719 20.21363013 0.4721022 18.67667982 -1.875 15.3125 C-3.26785641 11.21131168 -3.83347957 7.28996839 -3 3 C-1.4765625 1.23046875 -1.4765625 1.23046875 0 0 Z " fill="#0F0A0C" transform="translate(290,241)"/>
<path d="M0 0 C0.721875 0.226875 1.44375 0.45375 2.1875 0.6875 C1.87988119 3.55860893 1.22368633 4.65018285 -0.8125 6.75 C-7.75241225 11.23202666 -14.05390418 11.95805346 -22.1875 12 C-22.98502686 12.00547852 -23.78255371 12.01095703 -24.60424805 12.01660156 C-28.50175069 11.96848937 -30.50308575 11.89377617 -33.8125 9.6875 C-33.8125 9.0275 -33.8125 8.3675 -33.8125 7.6875 C-33.02488281 7.66171875 -32.23726562 7.6359375 -31.42578125 7.609375 C-22.31155348 7.13478799 -13.0328983 5.88319968 -5.11328125 1.03515625 C-2.8125 -0.3125 -2.8125 -0.3125 0 0 Z " fill="#0C090A" transform="translate(270.8125,189.3125)"/>
<path d="M0 0 C0.5 2.1875 0.5 2.1875 0 5 C-6.99639255 11.41335984 -15.94350368 12.32904584 -25 12.125 C-26.16208984 12.11146484 -26.16208984 12.11146484 -27.34765625 12.09765625 C-29.23190843 12.07439388 -31.11599832 12.0385364 -33 12 C-33.33 10.68 -33.66 9.36 -34 8 C-30.60792926 6.99221087 -27.40139486 6.8362034 -23.875 6.6875 C-15.33016059 6.09090085 -7.81119773 0 0 0 Z " fill="#0C0909" transform="translate(267,180)"/>
<path d="M0 0 C0.598125 0.20625 1.19625 0.4125 1.8125 0.625 C1.43628762 3.05234288 1.15009313 4.3138502 -0.68359375 6.00390625 C-10.02297914 11.69773678 -19.21529606 13.80993647 -30.1875 12.625 C-31.1775 11.965 -32.1675 11.305 -33.1875 10.625 C-33.1875 9.635 -33.1875 8.645 -33.1875 7.625 C-31.66382813 7.60373047 -31.66382813 7.60373047 -30.109375 7.58203125 C-20.86937848 7.31288327 -6.97898476 -1.19639739 0 0 Z " fill="#100C0C" transform="translate(261.1875,171.375)"/>
<path d="M0 0 C1.7325 0.1546875 1.7325 0.1546875 3.5 0.3125 C5.5 3.3125 5.5 3.3125 5.3125 6.375 C4.5 9.3125 4.5 9.3125 1.5 11.3125 C-1.82240324 10.9883631 -3.10776303 10.70473697 -5.5 8.3125 C-5.75 5.3125 -5.75 5.3125 -5.5 2.3125 C-3.5 0.3125 -3.5 0.3125 0 0 Z " fill="#090608" transform="translate(304.5,242.6875)"/>
<path d="M0 0 C2.31 0.66 4.62 1.32 7 2 C7 2.99 7 3.98 7 5 C6.34 5 5.68 5 5 5 C5.33 6.32 5.66 7.64 6 9 C3.03 8.67 0.06 8.34 -3 8 C-1.125 1.125 -1.125 1.125 0 0 Z " fill="#372A2D" transform="translate(257,205)"/>
<path d="M0 0 C1.46022163 0.95545366 2.91811468 1.91446678 4.375 2.875 C5.18710938 3.40867188 5.99921875 3.94234375 6.8359375 4.4921875 C9 6 9 6 11 8 C11.99 8 12.98 8 14 8 C13.67 9.65 13.34 11.3 13 13 C11.02 13 9.04 13 7 13 C6.87625 11.329375 6.87625 11.329375 6.75 9.625 C6.5025 8.42875 6.255 7.2325 6 6 C4.0998823 4.75825204 4.0998823 4.75825204 2 4 C0.87109375 1.94921875 0.87109375 1.94921875 0 0 Z " fill="#191414" transform="translate(236,217)"/>
<path d="M0 0 C1.9375 0.9375 1.9375 0.9375 3.1875 3.3125 C3.9375 5.9375 3.9375 5.9375 3.9375 8.9375 C-0.48139613 7.58728174 -2.40595343 5.67634332 -5.0625 1.9375 C-2.0625 -0.0625 -2.0625 -0.0625 0 0 Z " fill="#0E0B0B" transform="translate(231.0625,243.0625)"/>
<path d="M0 0 C1.1171875 1.734375 1.1171875 1.734375 2 4 C1.3203125 6.140625 1.3203125 6.140625 0.125 8.25 C-0.26429688 8.95640625 -0.65359375 9.6628125 -1.0546875 10.390625 C-1.36664063 10.92171875 -1.67859375 11.4528125 -2 12 C-2.66 11.34 -3.32 10.68 -4 10 C-4.99 10.495 -4.99 10.495 -6 11 C-3.76687117 3.98159509 -3.76687117 3.98159509 -2 1 C-1.34 0.67 -0.68 0.34 0 0 Z " fill="#241720" transform="translate(337,288)"/>
<path d="M0 0 C0.99 0.33 1.98 0.66 3 1 C3.59732819 3.76264289 4 6.16032769 4 9 C2.33388095 9.042721 0.66617115 9.04063832 -1 9 C-1.33 8.67 -1.66 8.34 -2 8 C-1.28 1.28 -1.28 1.28 0 0 Z " fill="#DDB2B0" transform="translate(237,162)"/>
<path d="M0 0 C0.6875 1.8125 0.6875 1.8125 1 4 C-0.125 5.8125 -0.125 5.8125 -2 7 C-4.6875 6.6875 -4.6875 6.6875 -7 6 C-7.33 5.01 -7.66 4.02 -8 3 C-6.865625 2.690625 -5.73125 2.38125 -4.5625 2.0625 C-1.21224901 1.37075469 -1.21224901 1.37075469 0 0 Z " fill="#151110" transform="translate(230,236)"/>
<path d="M0 0 C0.66 0.33 1.32 0.66 2 1 C0.6390377 5.08288689 -1.47953322 5.88685817 -5.0625 8.1875 C-6.16722656 8.90292969 -7.27195312 9.61835938 -8.41015625 10.35546875 C-9.26480469 10.89816406 -10.11945313 11.44085938 -11 12 C-11.66 11.67 -12.32 11.34 -13 11 C-8.71 7.37 -4.42 3.74 0 0 Z " fill="#291F22" transform="translate(280,226)"/>
<path d="M0 0 C0.66 0.33 1.32 0.66 2 1 C2 1.99 2 2.98 2 4 C-0.64 4.99 -3.28 5.98 -6 7 C-6.33 5.68 -6.66 4.36 -7 3 C-4.69631264 1.93347808 -2.35981813 0.93578995 0 0 Z " fill="#261F19" transform="translate(198,153)"/>
<path d="M0 0 C-0.33 1.32 -0.66 2.64 -1 4 C-3.31 4.66 -5.62 5.32 -8 6 C-6.53781513 1.3697479 -6.53781513 1.3697479 -4 -0.375 C-2 -1 -2 -1 0 0 Z " fill="#281C20" transform="translate(286,343)"/>
<path d="M0 0 C0.7425 0.0825 1.485 0.165 2.25 0.25 C1.25 3.25 1.25 3.25 -1.125 4.5 C-3.75 5.25 -3.75 5.25 -6.75 4.25 C-3.42692308 0.31153846 -3.42692308 0.31153846 0 0 Z " fill="#13100E" transform="translate(204.75,150.75)"/>
<path d="M0 0 C1.9375 0.75 1.9375 0.75 4 2 C4.33333333 3.33333333 4.66666667 4.66666667 5 6 C6.9837767 7.28436734 6.9837767 7.28436734 9 8 C6.1875 8.3125 6.1875 8.3125 3 8 C0.68858396 5.14925356 0 3.6860549 0 0 Z " fill="#A38282" transform="translate(238,221)"/>
<path d="M0 0 C1.32 0.33 2.64 0.66 4 1 C-0.625 5.875 -0.625 5.875 -4 7 C-2.79618552 4.50638429 -1.54571278 2.31856917 0 0 Z " fill="#14100E" transform="translate(189,157)"/>
<path d="M0 0 C0.33 0.66 0.66 1.32 1 2 C0.22265625 3.7265625 0.22265625 3.7265625 -0.9375 5.625 C-1.618125 6.73875 -2.29875 7.8525 -3 9 C-3.66 8.67 -4.32 8.34 -5 8 C-5 6.68 -5 5.36 -5 4 C-2.5 1.75 -2.5 1.75 0 0 Z " fill="#0C0C09" transform="translate(155,191)"/>
<path d="M0 0 C1.4540625 0.0309375 1.4540625 0.0309375 2.9375 0.0625 C3.2675 1.0525 3.5975 2.0425 3.9375 3.0625 C1.0625 3.1875 1.0625 3.1875 -2.0625 3.0625 C-2.7225 2.4025 -3.3825 1.7425 -4.0625 1.0625 C-3.0625 0.0625 -3.0625 0.0625 0 0 Z " fill="#E7B2BC" transform="translate(259.0625,210.9375)"/>
<path d="M0 0 C4.75 1.875 4.75 1.875 7 3 C7 4.65 7 6.3 7 8 C1.125 3.375 1.125 3.375 0 0 Z " fill="#957677" transform="translate(241,219)"/>
<path d="M0 0 C1.65 0 3.3 0 5 0 C5.33 0.99 5.66 1.98 6 3 C3.69 3 1.38 3 -1 3 C-0.67 2.01 -0.34 1.02 0 0 Z " fill="#E1ACB7" transform="translate(258,206)"/>
<path d="M0 0 C0.66 0.33 1.32 0.66 2 1 C1.67 2.65 1.34 4.3 1 6 C-0.98 6 -2.96 6 -5 6 C-3.68 5.67 -2.36 5.34 -1 5 C-0.67 3.35 -0.34 1.7 0 0 Z " fill="#433435" transform="translate(248,224)"/>
<path d="M0 0 C0.33 0.99 0.66 1.98 1 3 C-3.75 5.875 -3.75 5.875 -6 7 C-4.52307692 2.32307692 -4.52307692 2.32307692 -1.875 0.6875 C-1.25625 0.460625 -0.6375 0.23375 0 0 Z " fill="#2C291F" transform="translate(157,188)"/>
</svg>
